# Created with Anim8or 0.95 by [TheDarkTiger]
# Texturized with GMax, texture created with Paint
# ComRec:
g mesh01
# No. points 12:
v -14.4052 -24 -4
v -14.4052 -24 4
v -14.4052 24 -4
v -14.4052 24 4
v 14.4052 -18.9212 -4
v 14.4052 -18.9212 4
v 14.4052 24 -4
v 14.4052 24 4
v 12.7313 -22.0557 4.00001
v 9.59286 -23.9937 4
v 12.713 -22.1145 -3.84872
v 9.5217 -23.9971 -3.9269

# No. normals 45:
vn -1 0 0
vn -1 0 0
vn 1 0 0
vn 1 0 0
vn 0 1 0
vn 0 1 0
vn 0 0 1
vn 0.00305 0.03633 -0.999335
vn 0.00920 -0.05218 -0.99860
vn 0 0 -1
vn 0 0 -1
vn 0.00012 -1 0
vn 0.00026 -1 0.00043
vn 0.88363 -0.46819 0.00145
vn 0.88210 -0.47106 0
vn 0.52540 -0.85084 0.00515
vn 0.50817 -0.86125 -0.00419
vn 0 -0.00001 1
vn 0 0 1
vn 0 0 1
vn -1 0 0
vn 0.00012 -1 0
vn 0.00409 -0.00529 -0.999978
vn -1 0 0
vn 0.00011 -0.55465 0.83209
vn -1 0 0
vn 0 0 -1
vn 0 1 0
vn -1 0 0
vn 0 0 1
vn 0 1 0
vn 0.76711 -0.20147 -0.60906
vn 0.97008 -0.24280 0
vn 0 0 1
vn 1 0 0
vn 0 0 -1
vn 0 1 0
vn 1 0 0
vn 0 0 1
vn 0 1 0
vn 0.64854 -0.50672 0.56800
vn 0.33671 -0.88332 0.32615
vn 0.54512 -0.62047 -0.56379
vn 0.00305 0.03633 -0.999335
vn 0.17499 -0.98457 -0.00130

# No. texture coordinates 28:
vt 0.66140 0
vt 0.58503 0
vt 0.66140 1
vt 0.58503 1
vt 0.66365 0.10581
vt 0.58729 0.10581
vt 0.66365 1
vt 0.58407 1
vt 0.58786 0.04051
vt 0.58714 0.00013
vt 0.66325 0.03928
vt 0.66275 0.00006
vt 0 0
vt 0 1
vt 0.62213 0.10581
vt 0.62213 1
vt 0.58011 0.04051
vt 0.50976 0.00013
vt 1.00001 0.00001
vt 1.00001 0.999999
vt 0.62230 0.10582
vt 0.62230 1.00001
vt 0.65207 0.03928
vt 0.68888 0.00007
vt 1 0.93906
vt 1 1
vt 0.62389 0.93906
vt 0.62389 1

# No. faces 20:
f 4/4/29 3/3/26 1/1/21
f 2/2/24 4/4/29 1/1/21
f 8/8/38 6/6/33 5/5/32
f 7/7/35 8/8/38 5/5/32
f 8/28/40 7/27/37 3/25/28
f 4/26/31 8/28/40 3/25/28
f 6/15/34 8/16/39 4/14/30
f 11/23/43 12/24/44 1/19/23
f 5/21/32 11/23/43 1/19/23
f 3/20/27 5/21/32 1/19/23
f 7/22/36 5/21/32 3/20/27
f 12/12/45 2/2/25 1/1/22
f 12/12/45 10/10/42 2/2/25
f 9/9/41 11/11/43 5/5/32
f 6/6/33 9/9/41 5/5/32
f 10/10/42 11/11/43 9/9/41
f 12/12/45 11/11/43 10/10/42
f 10/18/42 9/17/41 2/13/25
f 9/17/41 6/15/34 2/13/25
f 6/15/34 4/14/30 2/13/25


